<svg width="64" height="96" viewBox="0 0 64 96" fill="none" xmlns="http://www.w3.org/2000/svg">
<path d="M16 96C24.8558 96 32 88.8558 32 80V64H16C7.14419 64 0 71.1442 0 80C0 88.8558 7.14419 96 16 96Z" fill="#6E6AD2" fill-opacity="0.75"/>
<path d="M0 48C0 39.1442 7.14419 32 16 32H32V64H16C7.14419 64 0 56.8558 0 48Z" fill="#6E6AD2"/>
<path d="M0 16C0 7.14419 7.14419 0 16 0H32V32H16C7.14419 32 0 24.8558 0 16Z" fill="#6E6AD2" fill-opacity="0.75"/>
<path d="M32 0H48C56.8558 0 64 7.14419 64 16C64 24.8558 56.8558 32 48 32H32V0Z" fill="#6E6AD2"/>
<path d="M64 48C64 56.8558 56.8558 64 48 64C39.1442 64 32 56.8558 32 48C32 39.1442 39.1442 32 48 32C56.8558 32 64 39.1442 64 48Z" fill="#6E6AD2"/>
</svg>
