<svg width="48" height="78" viewBox="0 0 48 78" fill="none" xmlns="http://www.w3.org/2000/svg">
<path fill-rule="evenodd" clip-rule="evenodd" d="M7.19062 0H40.7469C44.7167 0 47.9375 3.27539 47.9375 7.3125V70.6875C47.9375 74.7246 44.7167 78 40.7469 78H7.19062C3.2208 78 0 74.7246 0 70.6875V7.3125C0 3.27539 3.2208 0 7.19062 0ZM19.175 68.25C19.175 70.9465 21.3172 73.125 23.9688 73.125C26.6203 73.125 28.7625 70.9465 28.7625 68.25C28.7625 65.5535 26.6203 63.375 23.9688 63.375C21.3172 63.375 19.175 65.5535 19.175 68.25ZM6.5 4.0625C5.15381 4.0625 4.0625 5.1538 4.0625 6.5V59.3125C4.0625 60.6587 5.1538 61.75 6.5 61.75H41.4375C42.7837 61.75 43.875 60.6587 43.875 59.3125V6.5C43.875 5.15381 42.7837 4.0625 41.4375 4.0625H6.5Z" fill="#6E6AD2"/>
</svg>
