<svg width="59" height="96" viewBox="0 0 59 96" fill="none" xmlns="http://www.w3.org/2000/svg">
<g clip-path="url(#clip0_328_72)">
<path d="M50.15 0H8.85C3.96406 0 0 4.03125 0 9V87C0 91.9688 3.96406 96 8.85 96H50.15C55.0359 96 59 91.9688 59 87V9C59 4.03125 55.0359 0 50.15 0ZM29.5 90C26.2366 90 23.6 87.3187 23.6 84C23.6 80.6813 26.2366 78 29.5 78C32.7634 78 35.4 80.6813 35.4 84C35.4 87.3187 32.7634 90 29.5 90Z" fill="#6E6AD2"/>
</g>
<defs>
<clipPath id="clip0_328_72">
<rect width="59" height="96" fill="white"/>
</clipPath>
</defs>
</svg>
