<svg width="76" height="76" viewBox="0 0 76 76" fill="none" xmlns="http://www.w3.org/2000/svg">
<mask id="mask0_328_71" style="mask-type:luminance" maskUnits="userSpaceOnUse" x="0" y="0" width="76" height="76">
<path d="M0 0H76V76H0V0Z" fill="white"/>
</mask>
<g mask="url(#mask0_328_71)">
<path d="M35.511 0.0193958C35.3463 0.0352292 34.827 0.0890625 34.3583 0.123896C23.5663 1.09923 13.4583 6.92273 7.049 15.8749C3.50962 20.7887 1.20878 26.4843 0.342 32.4777C0.038 34.5677 0 35.1821 0 38.0131C0 40.8441 0.038 41.4616 0.342 43.5484C2.40667 57.8206 12.5653 69.8096 26.3372 74.2524C28.804 75.0472 31.4038 75.5887 34.3583 75.9181C35.511 76.0447 40.489 76.0447 41.6417 75.9181C46.7432 75.3512 51.0688 74.0877 55.3312 71.9122C55.9867 71.5797 56.1133 71.4879 56.0247 71.4151C53.9397 68.6655 51.8761 65.8998 49.8338 63.1184L43.757 54.9072L36.1443 43.6371C33.6114 39.8675 31.0548 36.1139 28.4747 32.3764C28.4462 32.3669 28.4177 37.3734 28.4018 43.4914C28.3797 54.1947 28.3702 54.6254 28.2372 54.8787C28.1074 55.1744 27.876 55.4137 27.5848 55.5532C27.3473 55.6736 27.1415 55.6957 26.0173 55.6957H24.7317L24.3897 55.4804C24.178 55.3468 24.0063 55.1586 23.8925 54.9357L23.7342 54.6032L23.75 39.7072L23.7722 24.8049L24.0033 24.5136C24.159 24.3314 24.3455 24.1781 24.5543 24.0607C24.8583 23.9119 24.9755 23.8992 26.2643 23.8992C27.778 23.8992 28.0313 23.9562 28.424 24.3869C28.5348 24.5072 32.6578 30.7202 37.5915 38.1999L52.5825 60.9112L58.5992 70.0249L58.9063 69.8254C61.8019 67.9003 64.4271 65.5968 66.7122 62.9759C71.5007 57.4953 74.6068 50.7499 75.658 43.5484C75.962 41.4584 76 40.8441 76 38.0131C76 35.1821 75.962 34.5677 75.658 32.4777C73.5933 18.2087 63.4347 6.21656 49.6628 1.77373C47.0889 0.955365 44.4385 0.400464 41.7525 0.117563C41.0368 0.0415625 36.1285 -0.0407708 35.5142 0.0225625L35.511 0.0193958ZM51.0688 23.0094C51.2454 23.0983 51.4027 23.2214 51.5315 23.3714C51.6603 23.5214 51.7581 23.6954 51.8193 23.8834C51.8763 24.0734 51.8922 28.2059 51.8763 37.5159L51.8542 50.8729L49.5013 47.2629L47.139 43.6529V33.9439C47.139 27.6644 47.1675 24.1367 47.2118 23.9657C47.2645 23.7679 47.3568 23.5829 47.4831 23.4218C47.6094 23.2607 47.767 23.1268 47.9465 23.0284C48.2537 22.8701 48.3645 22.8574 49.5298 22.8574C50.6287 22.8574 50.8218 22.8764 51.0688 23.0094Z" fill="#6E6AD2"/>
</g>
</svg>
